<?xml version="1.0" standalone="no"?>
<!DOCTYPE svg PUBLIC "-//W3C//DTD SVG 20010904//EN"
 "http://www.w3.org/TR/2001/REC-SVG-20010904/DTD/svg10.dtd">
<svg version="1.0" xmlns="http://www.w3.org/2000/svg"
 width="1772.000000pt" height="1772.000000pt" viewBox="0 0 1772.000000 1772.000000"
 preserveAspectRatio="xMidYMid meet">
<metadata>
Created by potrace 1.11, written by Peter Selinger 2001-2013
</metadata>
<g transform="translate(0.000000,1772.000000) scale(0.100000,-0.100000)"
fill="#000000" stroke="none">
<path d="M14419 17277 c-9 -7 -33 -25 -54 -42 -21 -16 -65 -51 -99 -77 -33
-27 -65 -51 -71 -56 -8 -6 -170 -133 -300 -234 -5 -5 -37 -29 -71 -56 -33 -26
-75 -58 -93 -72 -18 -14 -38 -30 -44 -35 -7 -6 -52 -42 -102 -80 -49 -38 -97
-75 -105 -82 -21 -18 -393 -308 -533 -416 -66 -51 -131 -102 -145 -114 -15
-13 -31 -23 -35 -23 -5 0 -28 19 -51 43 -64 64 -150 141 -229 205 -40 31 -74
59 -77 62 -12 14 -187 135 -305 212 -553 362 -1264 642 -1625 641 -69 0 -112
-22 -146 -73 -50 -76 -36 -142 53 -253 66 -82 103 -144 103 -174 0 -40 -85
-85 -243 -127 -50 -14 -117 -28 -147 -31 -30 -3 -66 -8 -80 -10 -49 -8 -236
-20 -455 -30 -349 -15 -421 -19 -570 -30 -132 -10 -213 -17 -340 -31 -54 -5
-254 -33 -295 -40 -14 -2 -45 -7 -70 -10 -25 -3 -94 -16 -155 -29 -60 -13
-121 -26 -135 -28 -144 -27 -457 -123 -659 -204 -508 -201 -920 -479 -1296
-875 -493 -519 -718 -932 -762 -1398 -13 -132 -7 -396 11 -520 20 -141 22
-131 -34 -225 -132 -218 -215 -483 -248 -785 -14 -133 -5 -660 13 -689 1 -4 6
-31 9 -61 20 -174 88 -470 147 -636 37 -104 65 -156 131 -242 27 -35 62 -85
78 -112 l29 -49 -107 -72 c-59 -40 -117 -84 -130 -98 -79 -91 -140 -210 -171
-330 -11 -46 -22 -85 -23 -87 -5 -4 -580 -453 -611 -476 -17 -13 -35 -28 -41
-33 -6 -6 -67 -54 -136 -107 -69 -53 -173 -134 -231 -180 -58 -46 -119 -93
-135 -106 -113 -87 -302 -235 -314 -245 -8 -7 -87 -68 -175 -137 -88 -68 -167
-130 -175 -137 -29 -23 -305 -238 -331 -258 -40 -30 -516 -403 -536 -420 -16
-13 -358 -280 -773 -603 -69 -54 -210 -165 -315 -247 -104 -82 -220 -171 -256
-199 -36 -28 -154 -121 -263 -206 -109 -85 -297 -233 -419 -328 -273 -213
-284 -222 -263 -222 14 0 123 -28 331 -87 50 -14 97 -26 105 -28 8 -2 51 -13
95 -25 44 -12 127 -34 185 -50 58 -15 332 -89 610 -165 278 -75 530 -144 560
-151 75 -19 66 -17 240 -64 283 -77 503 -137 675 -183 141 -38 197 -53 265
-72 3 -1 25 -7 50 -14 25 -7 53 -15 62 -16 9 -2 51 -13 93 -25 42 -12 84 -23
93 -25 9 -3 58 -15 107 -29 216 -58 249 -67 318 -86 39 -10 189 -51 332 -90
143 -39 267 -73 275 -75 34 -8 588 -157 616 -166 17 -5 40 -11 52 -14 11 -2
55 -13 97 -25 42 -12 84 -23 93 -25 9 -3 51 -14 92 -25 145 -40 226 -62 375
-101 83 -22 204 -55 270 -73 66 -18 143 -39 170 -46 28 -7 54 -16 58 -20 4 -3
12 -33 17 -66 14 -85 16 -94 40 -181 26 -92 95 -279 116 -310 8 -12 14 -27 14
-32 0 -16 119 -220 178 -306 60 -88 162 -220 211 -275 164 -182 274 -289 445
-435 32 -27 63 -55 70 -60 103 -92 219 -164 261 -160 61 5 117 43 139 94 21
48 60 195 82 304 l17 88 23 -38 c13 -21 24 -41 24 -45 0 -10 103 -189 148
-258 40 -61 131 -187 161 -223 11 -12 36 -42 56 -67 72 -87 247 -262 354 -354
64 -55 244 -187 340 -249 288 -189 648 -370 1077 -542 104 -42 198 -80 209
-85 11 -5 128 -50 260 -100 355 -135 654 -250 705 -272 25 -11 52 -21 60 -23
8 -2 96 -38 195 -80 164 -70 184 -76 229 -71 126 14 369 279 617 673 44 70 82
129 84 131 3 3 -46 -140 -78 -228 -3 -8 -15 -44 -27 -80 -22 -67 -106 -297
-141 -385 -11 -28 -21 -66 -24 -85 -6 -51 25 -113 74 -146 36 -24 48 -26 96
-21 65 7 69 10 255 192 185 181 330 338 425 459 17 21 37 46 45 56 8 10 22 27
30 37 51 61 220 308 290 423 97 159 229 426 295 595 26 66 48 121 49 122 2 2
69 -15 199 -51 60 -17 162 -44 187 -51 41 -11 336 -90 410 -110 120 -33 242
-66 260 -71 19 -4 189 -50 380 -102 291 -79 455 -124 470 -127 8 -2 58 -16
110 -31 52 -14 113 -30 135 -36 22 -5 81 -21 130 -35 50 -13 98 -26 107 -28 9
-2 83 -22 165 -44 173 -47 429 -117 703 -191 107 -28 226 -61 264 -72 38 -11
76 -21 85 -23 9 -2 68 -17 131 -35 63 -17 131 -36 150 -40 19 -5 67 -17 106
-28 64 -17 71 -18 68 -3 -1 9 -8 39 -13 66 -6 28 -13 61 -15 75 -4 21 -59 290
-95 465 -6 28 -13 61 -15 75 -3 14 -16 79 -30 145 -14 66 -27 134 -30 150 -3
17 -19 94 -36 173 -16 79 -32 155 -35 170 -4 22 -52 258 -96 472 -5 25 -11 54
-13 65 -7 33 -73 359 -112 545 -19 96 -38 186 -40 200 -2 14 -7 39 -11 55 -4
17 -8 35 -9 40 -1 6 -13 66 -27 135 -15 69 -28 136 -31 150 -2 14 -23 115 -46
225 -39 192 -120 587 -160 785 -10 52 -33 160 -49 240 -16 80 -32 156 -34 170
-3 14 -14 68 -25 120 -12 52 -23 109 -26 125 -10 53 -53 266 -106 520 -16 77
-31 151 -34 165 -6 33 -59 294 -90 440 -13 63 -26 129 -29 145 -3 17 -17 89
-32 160 -15 72 -28 135 -29 140 -2 6 -8 35 -14 65 -6 30 -14 66 -16 80 -3 14
-16 81 -31 150 -14 69 -27 134 -29 145 -2 11 -14 67 -26 125 -12 58 -24 114
-26 125 -2 11 -6 31 -9 45 -3 14 -7 34 -9 45 -2 11 -15 76 -30 145 -25 124
-33 162 -42 210 -2 14 -7 39 -11 55 -4 17 -8 35 -9 40 -6 31 -106 522 -109
535 -69 338 -86 419 -90 440 -2 14 -9 45 -15 70 -5 25 -12 56 -14 70 -3 14
-10 50 -16 80 -6 30 -13 66 -16 80 -2 14 -9 45 -14 70 -6 25 -13 56 -15 70 -3
14 -12 59 -20 100 -8 41 -17 84 -19 95 -2 11 -18 90 -36 175 -17 85 -34 166
-36 180 -3 13 -12 56 -20 95 -9 38 -17 81 -19 95 -3 14 -6 34 -9 45 -5 22 -55
264 -63 305 -2 14 -20 99 -39 189 -19 90 -36 176 -39 190 -3 14 -7 35 -9 46
-2 11 -21 101 -41 200 -20 99 -38 187 -40 195 -7 33 -77 377 -81 400 -2 14
-11 54 -19 90 -12 56 -54 266 -69 340 -2 14 -12 58 -20 97 -9 40 -18 86 -21
103 -3 17 -12 63 -21 103 -8 39 -18 83 -20 97 -2 14 -20 99 -39 190 -18 91
-50 246 -70 345 -20 99 -48 234 -62 300 -14 66 -27 131 -29 145 -3 14 -12 59
-21 100 -8 41 -17 89 -20 105 -2 17 -8 46 -13 65 -7 28 -39 181 -86 415 -9 45
-78 383 -114 560 -60 296 -149 727 -154 755 -2 14 -16 81 -31 150 -14 69 -28
141 -31 160 -3 19 -8 38 -10 41 -2 3 -6 21 -9 40 -3 19 -14 75 -25 124 -10 50
-21 104 -24 120 -14 72 -18 95 -38 185 -11 52 -22 106 -24 120 -3 14 -7 32 -9
40 -2 8 -7 31 -10 50 -7 42 -6 41 -26 27z m-621 -1633 c-3 -3 -2 -20 3 -37 4
-18 11 -48 14 -67 3 -19 13 -64 21 -100 8 -36 17 -80 20 -99 6 -38 5 -30 33
-167 26 -121 21 -98 66 -319 20 -99 39 -191 42 -205 2 -14 15 -77 28 -140 13
-63 26 -126 29 -140 2 -14 14 -70 25 -125 12 -55 24 -112 26 -128 3 -15 12
-60 21 -100 8 -39 18 -83 20 -97 2 -14 11 -56 19 -95 18 -79 65 -310 70 -340
2 -11 12 -63 23 -115 11 -52 47 -230 81 -395 33 -165 83 -410 111 -545 75
-367 99 -481 105 -519 3 -19 7 -37 9 -40 2 -3 7 -23 10 -43 3 -20 19 -99 35
-175 16 -76 32 -155 35 -177 4 -21 8 -41 10 -45 2 -3 7 -22 10 -41 3 -19 17
-91 31 -160 15 -69 28 -136 31 -150 3 -14 20 -101 39 -193 19 -93 38 -183 41
-200 3 -18 14 -72 24 -122 11 -49 21 -101 24 -115 3 -14 19 -92 36 -175 18
-82 34 -161 36 -175 9 -45 53 -263 70 -340 9 -41 18 -86 20 -100 3 -14 9 -44
15 -68 5 -23 12 -59 15 -80 3 -20 9 -53 14 -72 8 -32 43 -203 54 -260 3 -14
21 -106 41 -205 45 -216 40 -194 48 -230 4 -16 9 -41 11 -55 3 -14 8 -36 11
-50 3 -14 8 -38 10 -55 3 -16 14 -70 25 -120 10 -49 21 -101 24 -115 5 -31 58
-287 136 -670 76 -367 80 -389 86 -420 3 -14 16 -79 30 -145 14 -66 29 -142
34 -170 5 -27 18 -90 28 -140 11 -49 22 -103 25 -120 3 -16 17 -86 31 -155 15
-69 28 -134 30 -145 5 -24 33 -160 120 -587 36 -174 67 -327 70 -340 2 -12 14
-70 26 -128 12 -58 24 -116 26 -130 1 -14 10 -54 18 -90 8 -36 17 -76 20 -90
2 -14 14 -72 26 -130 27 -129 28 -133 40 -195 5 -27 41 -205 80 -395 39 -190
84 -412 101 -495 17 -82 37 -181 45 -220 8 -38 17 -81 20 -95 3 -14 14 -70 26
-125 11 -55 22 -111 25 -125 3 -14 14 -68 25 -120 11 -52 22 -106 24 -120 3
-14 16 -80 30 -146 14 -67 27 -133 29 -147 3 -13 14 -68 25 -122 11 -53 20
-101 20 -105 0 -5 -12 -4 -27 1 -25 9 -341 94 -630 170 -62 16 -179 48 -260
70 -82 22 -155 42 -163 44 -35 8 -959 257 -1000 269 -25 7 -93 26 -151 41 -59
15 -112 31 -118 34 -8 5 -4 29 13 82 31 93 124 400 130 431 3 13 13 50 22 83
9 33 17 67 19 75 2 8 12 53 23 100 11 47 22 101 26 120 3 19 8 46 11 60 3 14
8 41 11 60 2 19 7 46 9 60 4 23 8 51 20 185 11 109 5 394 -10 491 -2 17 -7 57
-10 90 -4 32 -11 78 -16 102 -5 23 -12 59 -15 80 -3 20 -8 40 -10 43 -2 4 -6
24 -10 44 -27 173 -241 812 -355 1062 -10 24 -19 45 -19 48 0 5 -99 241 -137
325 -14 30 -31 69 -38 85 -76 174 -233 520 -252 558 -19 38 -25 68 -28 145 -8
161 -19 320 -30 427 -8 76 -27 221 -30 226 -2 3 21 99 50 213 76 292 112 473
132 651 10 88 10 364 0 430 -21 148 -21 153 6 192 42 62 109 230 122 306 3 15
12 58 20 95 8 38 17 95 20 128 4 32 8 61 10 64 3 4 6 44 20 215 21 276 21 276
61 308 45 37 85 108 89 155 1 20 -4 55 -13 77 -19 51 -115 146 -181 180 -28
14 -51 32 -51 41 0 8 30 94 67 192 172 460 207 575 237 787 14 95 15 441 3
505 -3 14 -13 75 -22 135 -9 61 -20 126 -25 145 -5 19 -11 46 -13 60 -10 56
-30 116 -43 130 -11 14 -8 30 21 113 38 109 72 246 82 333 9 71 9 264 1 319
-40 269 -174 496 -408 692 -85 72 -340 222 -376 223 -8 0 -11 41 -8 138 2 124
-2 176 -21 268 -7 30 -3 34 237 219 133 104 245 192 248 195 12 13 66 49 74
50 5 0 7 -3 4 -6z m-4238 -1688 c194 -16 435 -88 645 -193 115 -58 207 -113
257 -154 26 -22 53 -39 61 -39 13 0 86 36 182 89 22 13 120 72 218 133 204
127 261 149 387 150 103 0 180 -13 293 -51 134 -46 320 -146 416 -226 144
-119 239 -221 326 -350 44 -66 134 -241 150 -295 15 -49 117 -241 174 -327 75
-115 134 -187 264 -325 212 -225 259 -314 283 -535 8 -72 8 -162 1 -169 -2 -3
-17 0 -33 6 -16 6 -72 20 -124 31 -99 20 -213 52 -265 74 -188 80 -264 100
-347 91 -52 -5 -65 -3 -101 18 -63 36 -110 43 -135 18 -11 -11 -19 -29 -17
-39 2 -10 4 -23 4 -28 1 -6 15 -28 33 -49 31 -38 45 -91 26 -102 -20 -12 -26
-49 -12 -75 15 -29 59 -41 104 -29 20 6 31 1 56 -26 29 -31 33 -33 85 -26 164
20 253 6 640 -99 123 -34 231 -62 239 -64 11 -1 14 -14 12 -51 -2 -26 -4 -50
-6 -52 -2 -2 -66 18 -142 44 -77 25 -155 50 -174 55 -19 4 -60 15 -90 24 -57
17 -64 18 -145 35 -108 22 -156 27 -256 25 -136 -3 -185 -11 -297 -47 -217
-71 -387 -221 -491 -433 -39 -79 -59 -126 -66 -155 -3 -8 -11 -40 -19 -70 -8
-30 -17 -66 -19 -80 -3 -14 -14 -77 -26 -140 -11 -63 -23 -128 -26 -145 -3
-16 -8 -43 -10 -60 -18 -97 -45 -254 -45 -259 0 -3 -25 7 -56 21 -108 49 -242
73 -409 74 -119 1 -165 -2 -279 -17 -74 -10 -224 -52 -294 -83 -79 -35 -82
-35 -82 -20 0 14 -114 329 -168 464 -114 284 -173 394 -268 495 -125 132 -239
183 -414 184 -121 0 -313 -17 -415 -38 -11 -2 -40 -7 -65 -11 -79 -12 -361
-83 -480 -121 -243 -76 -531 -192 -795 -318 -223 -107 -286 -146 -313 -195
-13 -23 -27 -39 -30 -37 -4 2 -50 7 -102 10 -128 8 -248 17 -268 21 -11 1 -16
10 -15 26 11 124 3 247 -21 351 -28 121 11 190 234 422 58 60 114 118 125 130
136 142 207 291 230 481 3 28 8 61 10 75 3 14 7 72 10 130 7 133 15 248 20
280 2 14 6 48 10 75 5 40 32 188 50 265 25 113 108 372 147 460 59 131 115
241 148 290 141 205 459 364 880 440 165 29 222 36 380 45 63 4 117 9 119 11
2 2 7 2 10 0 3 -2 44 -7 91 -10z m3135 -2911 c53 -8 236 -37 255 -40 50 -10
223 -58 268 -74 132 -49 186 -108 222 -242 16 -61 18 -99 15 -219 -1 -80 -6
-158 -10 -175 -3 -16 -13 -62 -21 -102 -22 -108 -78 -267 -113 -322 -87 -135
-224 -212 -426 -240 -68 -9 -349 -7 -383 3 -9 2 -39 7 -67 11 -101 12 -257 41
-305 57 -56 17 -134 74 -167 120 -103 146 -108 393 -13 672 58 171 116 284
207 403 110 145 151 163 353 158 80 -2 163 -7 185 -10z m-3122 -224 c70 -17
127 -47 166 -89 50 -55 133 -185 193 -302 151 -297 212 -544 159 -648 -51
-100 -238 -214 -495 -302 -51 -17 -261 -76 -305 -85 -9 -2 -36 -8 -61 -14 -48
-11 -66 -14 -175 -31 -160 -26 -352 -15 -456 26 -176 70 -314 228 -408 467
-57 145 -81 239 -88 338 -12 172 49 260 258 373 144 78 405 178 559 216 25 6
54 13 65 15 11 3 34 8 50 11 17 3 49 9 71 14 23 5 73 13 110 16 38 4 71 8 72
10 9 7 242 -5 285 -15z m-3709 -569 c112 -53 215 -146 301 -273 75 -111 124
-271 151 -489 3 -30 8 -62 9 -70 2 -8 6 -60 10 -115 4 -55 8 -113 10 -130 3
-26 10 -126 20 -315 6 -102 17 -275 20 -307 2 -25 -5 -38 -34 -66 -97 -91
-157 -121 -237 -119 -102 2 -195 68 -344 247 -41 50 -77 92 -80 95 -13 11
-179 239 -205 280 -16 25 -43 68 -61 96 -40 62 -123 228 -152 304 -118 304
-79 558 115 748 111 109 204 151 328 148 67 -1 91 -7 149 -34z m1381 -77 c50
-3 113 -8 140 -10 28 -2 98 -7 155 -11 58 -4 116 -8 130 -9 14 -2 39 -3 55 -4
29 -1 31 -4 69 -118 65 -194 163 -440 223 -563 46 -95 67 -126 123 -181 113
-112 310 -197 575 -250 115 -23 351 -32 445 -17 25 4 61 10 80 13 67 11 306
74 400 105 157 53 218 78 376 156 214 105 268 158 416 408 25 42 79 86 123 98
11 4 58 17 105 31 47 14 101 28 120 31 19 3 46 8 59 11 107 21 359 28 448 13
69 -12 159 -37 249 -70 l85 -30 34 -69 c79 -156 164 -210 405 -259 52 -10 118
-22 145 -25 28 -3 59 -8 70 -10 96 -19 584 -28 697 -12 114 15 188 31 261 54
43 14 81 23 83 20 5 -5 24 -79 39 -157 4 -19 9 -109 10 -200 3 -172 -9 -267
-66 -510 -11 -47 -22 -101 -25 -120 -3 -19 -9 -51 -14 -70 -7 -30 -8 -31 -9
-9 -3 66 -71 189 -139 251 -99 90 -296 200 -383 214 -32 6 -114 -25 -194 -74
-63 -37 -346 -223 -355 -232 -3 -3 -13 -11 -23 -19 -18 -14 -18 -12 -10 30 4
24 8 85 8 134 0 81 -3 95 -30 144 -16 30 -57 78 -90 107 -74 66 -205 159 -205
146 0 -5 7 -15 15 -22 22 -18 109 -158 137 -220 82 -179 45 -317 -119 -449
l-43 -34 -69 13 c-83 15 -103 11 -172 -36 -142 -97 -171 -115 -221 -135 -38
-16 -77 -22 -138 -23 -147 -2 -192 9 -464 114 -138 53 -173 58 -271 44 -125
-18 -162 -14 -225 27 -112 72 -149 135 -135 228 4 25 27 116 51 201 25 85 47
163 49 173 2 9 7 22 10 27 10 16 -5 11 -33 -11 -126 -98 -270 -254 -333 -360
-98 -164 -100 -272 -6 -329 38 -23 28 -25 -73 -10 -121 17 -206 26 -322 35
-46 3 -105 8 -133 11 -64 5 -367 5 -420 -1 -212 -23 -341 -67 -492 -168 -176
-117 -319 -336 -382 -582 -21 -80 -24 -98 -37 -190 -3 -27 -8 -59 -11 -70 -5
-28 -4 -340 2 -400 5 -53 11 -100 30 -225 4 -25 18 -92 32 -150 13 -58 26
-113 28 -122 6 -30 94 -288 111 -326 9 -20 38 -84 65 -141 28 -57 48 -105 46
-108 -8 -7 -140 47 -215 87 -410 222 -669 659 -719 1215 -18 205 0 632 29 688
14 26 60 21 160 -19 124 -49 138 -42 63 32 -33 32 -99 93 -145 134 -259 230
-337 312 -420 445 -121 192 -193 353 -220 490 -13 60 -15 228 -5 275 3 14 8
41 11 60 3 19 34 145 70 280 35 135 66 254 68 265 2 11 15 65 29 120 14 55 31
127 38 160 13 60 15 72 18 79 1 4 27 2 176 -9z m-1979 -1282 c48 -86 159 -262
231 -367 165 -239 282 -338 438 -372 70 -15 191 -2 277 31 l38 15 -6 -38 c-17
-105 -79 -395 -115 -532 -38 -145 -69 -255 -233 -820 -36 -124 -74 -261 -86
-305 -12 -44 -28 -103 -35 -131 -75 -277 -89 -610 -42 -966 3 -21 3 -38 1 -38
-5 0 -237 60 -329 85 -33 9 -67 18 -75 20 -8 3 -80 22 -160 43 -80 22 -190 52
-245 66 -55 15 -208 56 -340 92 -312 84 -481 129 -580 155 -44 12 -91 25 -105
30 -21 7 -186 51 -240 64 -8 2 -67 18 -130 35 -111 30 -250 68 -355 95 -27 7
-183 49 -345 93 -277 75 -341 92 -365 98 -5 1 -50 13 -100 27 -102 29 -282 77
-305 82 -57 12 -131 38 -123 45 4 4 51 40 103 81 52 40 97 76 100 79 3 3 32
26 65 51 49 37 500 388 610 475 157 123 872 682 1024 799 106 83 198 155 205
160 6 6 144 114 306 240 162 126 423 330 580 452 157 123 288 223 292 223 3 0
23 -30 44 -67z m6149 -1324 c282 -186 496 -279 650 -284 75 -2 212 59 422 187
284 173 340 197 428 184 68 -10 126 -70 146 -147 18 -73 14 -496 -6 -634 -2
-16 -6 -49 -9 -72 -13 -106 -59 -263 -108 -373 -70 -154 -199 -306 -334 -393
-111 -72 -165 -90 -265 -91 -80 -1 -91 1 -160 37 -82 42 -112 67 -180 147
-129 154 -213 376 -214 563 l0 49 85 34 c123 50 163 69 182 90 31 35 128 248
128 281 0 8 -36 -15 -79 -51 -229 -188 -307 -212 -711 -222 -232 -5 -567 -5
-675 1 -212 11 -235 16 -467 94 -81 28 -162 52 -180 55 -78 14 -88 14 -88 7 0
-12 17 -25 111 -84 180 -113 361 -190 512 -218 34 -6 69 -13 77 -14 8 -2 23
-4 33 -4 11 -1 17 -9 17 -26 0 -32 -37 -176 -60 -230 -4 -11 -14 -36 -21 -55
-24 -68 -112 -236 -166 -320 -114 -175 -281 -349 -351 -367 -98 -25 -218 3
-382 88 -87 46 -258 161 -320 215 -14 13 -36 32 -50 44 -151 129 -323 323
-427 482 -171 261 -208 474 -101 587 40 43 142 89 216 99 102 12 290 7 406
-13 68 -11 85 -14 176 -34 98 -20 233 -55 354 -90 100 -30 184 -22 326 30 186
69 492 271 774 512 l100 85 70 -52 c39 -28 103 -72 141 -97z"/>
<path d="M9776 11850 c-35 -10 -83 -25 -105 -34 -53 -21 -69 -20 -144 5 -53
18 -77 20 -167 16 -58 -3 -139 -13 -180 -22 -41 -9 -91 -18 -110 -21 -19 -3
-42 -7 -50 -9 -8 -2 -31 -7 -50 -10 -19 -3 -82 -15 -140 -27 -58 -11 -116 -22
-130 -25 -14 -2 -77 -15 -140 -28 -63 -13 -126 -26 -140 -29 -175 -33 -499
-118 -600 -157 -74 -28 -130 -66 -130 -88 0 -23 72 -55 148 -66 15 -2 59 -8
97 -14 97 -13 306 -26 590 -36 463 -15 571 -22 665 -41 129 -27 271 7 320 76
20 29 21 29 62 14 63 -22 143 -29 178 -14 24 10 40 10 77 0 27 -6 57 -14 68
-17 11 -3 54 -7 96 -10 92 -7 136 10 159 59 21 45 19 135 -3 180 -27 54 -94
116 -162 150 -73 37 -71 36 -57 50 31 31 -6 102 -57 110 -17 2 -59 -3 -95 -12z"/>
<path d="M12619 10696 c-2 -2 -22 -6 -45 -9 -42 -6 -153 -45 -195 -69 -90 -50
-173 -136 -200 -205 -14 -36 -20 -145 -8 -137 5 3 9 15 9 26 0 39 43 112 100
168 81 80 212 140 345 158 208 28 408 -43 476 -167 19 -35 19 -35 13 -6 -20
100 -94 170 -234 221 -40 14 -250 31 -261 20z"/>
<path d="M12595 10536 c-96 -30 -172 -95 -214 -185 -22 -47 -26 -70 -26 -141
0 -74 4 -92 28 -140 50 -98 130 -162 231 -185 94 -22 178 -5 263 51 90 61 142
160 144 272 1 88 -3 97 -43 76 -45 -23 -127 -15 -166 17 -59 47 -77 123 -47
196 8 20 13 38 11 41 -11 11 -144 9 -181 -2z"/>
<path d="M9125 10539 c-27 -4 -70 -12 -95 -18 -25 -7 -49 -13 -55 -14 -63 -16
-189 -97 -238 -152 -57 -65 -92 -168 -76 -225 7 -23 7 -24 8 -3 2 49 52 138
107 189 111 105 255 158 429 158 123 1 180 -11 268 -57 53 -28 116 -89 130
-127 4 -12 6 -11 6 3 2 31 -39 104 -80 142 -86 79 -262 124 -404 104z"/>
<path d="M9090 10381 c-91 -28 -169 -96 -211 -186 -33 -71 -41 -137 -25 -208
26 -109 89 -188 186 -235 47 -23 68 -27 145 -27 83 0 95 3 152 34 114 61 176
163 177 293 1 42 -2 79 -5 82 -3 4 -22 -1 -42 -9 -49 -20 -83 -19 -133 6 -78
37 -112 134 -73 210 18 37 18 37 -4 43 -30 8 -137 6 -167 -3z"/>
<path d="M5775 10018 c-193 -28 -321 -169 -350 -383 -7 -55 -8 -198 -1 -231 2
-12 7 -43 11 -70 10 -76 31 -159 37 -149 5 9 11 47 24 170 3 28 7 51 9 53 3 4
10 -4 177 -224 154 -201 186 -239 193 -232 5 5 -54 126 -140 283 -173 319
-178 330 -179 394 -1 158 148 282 299 249 61 -13 100 -35 143 -78 l39 -41 -4
43 c-9 88 -45 159 -97 193 -33 22 -104 32 -161 23z"/>
</g>
</svg>
